<svg xmlns="http://www.w3.org/2000/svg" viewBox="0 0 64 64" id="telephone">
  <path fill="#3f4a59" d="M35.31 18.92c4.24 0 7.68 3.45 7.68 7.68 0 1.03.83 1.86 1.86 1.86 1.03 0 1.86-.83 1.86-1.86 0-6.28-5.11-11.4-11.4-11.4-.49 0-.96.2-1.31.55-.35.35-.55.82-.55 1.31 0 1.03.84 1.86 1.86 1.86z"></path>
  <path fill="#3f4a59" d="M35.98 7.98c-.49 0-.96.2-1.31.55-.35.35-.55.82-.55 1.31 0 1.03.84 1.86 1.86 1.86 7.85 0 14.23 6.38 14.23 14.23 0 1.03.84 1.86 1.86 1.86 1.03 0 1.86-.83 1.86-1.86 0-9.9-8.05-17.95-17.95-17.95z"></path>
  <path fill="#3f4a59" d="M35.5 3.72c6.06 0 11.76 2.36 16.04 6.65 4.29 4.29 6.65 9.98 6.65 16.05 0 1.02.83 1.86 1.86 1.86 1.03 0 1.86-.84 1.86-1.86 0-7.06-2.75-13.69-7.74-18.68A26.26 26.26 0 0 0 45.61 2C42.44.69 39.02 0 35.5 0a1.862 1.862 0 0 0-1.86 1.86c0 1.03.83 1.86 1.86 1.86z"></path>
  <path fill="#3177b0" d="M50.22 39.99c-.96-.96-2.53-.96-3.5 0l-3.49 3.49c-.09.1-.19.18-.3.26-.82.61-1.89.7-2.79.25-8.01-3.98-14.11-10.08-18.15-18.14-.46-.93-.37-2.01.24-2.82.07-.11.15-.2.25-.3l3.5-3.49c.96-.97.95-2.54-.01-3.5L15.49 5.26a2.41 2.41 0 0 0-1.74-.72h-.01c-.66 0-1.28.26-1.75.72L8.17 9.09 4.3 12.95c-2.31 2.31-2.87 5.77-1.4 8.6 9.34 18.29 23.35 32.3 41.64 41.64 1.05.55 2.19.81 3.32.81 1.92 0 3.83-.76 5.28-2.21 0-.01.01-.01.01-.02l2.51-2.73 1.23-1.23 3.83-3.83c.95-.97.95-2.55-.01-3.5L50.22 39.99z"></path>
</svg>
