<svg xmlns="http://www.w3.org/2000/svg" viewBox="0 0 500 500" width="512" height="512">
  <path fill="currentColor" d="M250 54.4l-75.6 75.6 75.6 75.6 75.6-75.6L250 54.4zm0 65.2l-32.9 32.9 32.9 32.9 32.9-32.9-32.9-32.9zm-130 94.8l-75.6 75.6 75.6 75.6 75.6-75.6-75.6-75.6zm0 65.2l-32.9 32.9 32.9 32.9 32.9-32.9-32.9-32.9zm260-65.2l-75.6 75.6 75.6 75.6 75.6-75.6-75.6-75.6zm0 65.2l-32.9 32.9 32.9 32.9 32.9-32.9-32.9-32.9zm-130 64.8l-75.6 75.6 75.6 75.6 75.6-75.6L250 279.2zm0 65.2l-32.9 32.9 32.9 32.9 32.9-32.9-32.9-32.9z"/>
</svg>
