<?xml version="1.0" encoding="utf-8"?>
<!-- Generator: Adobe Illustrator 26.0.3, SVG Export Plug-In . SVG Version: 6.00 Build 0)  -->
<svg version="1.0" id="Layer_1" xmlns="http://www.w3.org/2000/svg" xmlns:xlink="http://www.w3.org/1999/xlink" x="0px" y="0px"
	 viewBox="0 0 1364.8 935.9" style="enable-background:new 0 0 1364.8 935.9;" xml:space="preserve">
<style type="text/css">
	.st0{fill:#201B4E;}
	.st1{fill:#FFFFFF;}
	.st2{fill:#2BA0DA;}
</style>
<path class="st0" d="M982.7,467.9c0,201.4-134.5,364.6-300.3,364.6S382.1,669.3,382.1,467.9s134.4-364.6,300.3-364.6
	S982.7,266.5,982.7,467.9"/>
<path class="st1" d="M968.8,467.9c0,192.1-128.2,347.8-286.4,347.8S395.9,660,395.9,467.9s128.2-347.8,286.4-347.8
	S968.8,275.9,968.8,467.9"/>
<path class="st0" d="M903.5,469.5c0,157.8-98.8,285.7-220.8,285.7S462.1,627.3,462.1,469.5s98.9-285.6,220.7-285.6
	S903.5,311.8,903.5,469.5"/>
<path class="st0" d="M469.2,269.5l10.7,5.3l-0.6,1c-2.6-0.9-5.5-0.9-8.1,0c-2.3,0.7-4.3,2.3-5.4,4.4c-0.8,1.3-1,2.9-0.7,4.4
	c0.2,1.3,1,2.4,2.2,3c0.7,0.3,1.4,0.5,2.1,0.4c1.1-0.1,2.3-0.5,3.3-1c1.9-1.1,3.7-2.2,5.4-3.6c3.8-2.7,6.8-4.3,9.1-4.7
	c2.2-0.4,4.6-0.1,6.6,1c2.6,1.3,4.5,3.8,5.2,6.6c0.8,3.2,0.3,6.5-1.4,9.3c-0.5,1-1.1,1.8-1.8,2.6c-0.9,1-1.9,1.9-2.9,2.7
	c-0.6,0.4-1.1,1-1.4,1.6c-0.2,0.5-0.3,1-0.2,1.5c0.1,0.7,0.4,1.3,0.9,1.8l-0.4,0.9l-11.9-6.3l0.5-0.8c3.2,1.1,6.6,1.1,9.7,0.1
	c2.5-0.8,4.7-2.5,5.9-4.8c0.9-1.5,1.2-3.2,0.8-4.9c-0.3-1.4-1.2-2.6-2.5-3.3c-0.8-0.4-1.6-0.6-2.5-0.5c-1,0-2,0.3-2.9,0.7
	c-1.6,0.9-3.2,1.9-4.7,3c-2.2,1.6-4.5,3-6.9,4.2c-1.5,0.7-3.2,1.1-4.9,1.2c-1.6,0-3.2-0.4-4.6-1.2c-2.4-1.2-4.2-3.4-4.9-6.1
	c-0.9-3.9,0.2-8.1,3-11c0.7-0.8,1.6-1.5,2.5-2.1c0.8-0.5,1.4-1.1,1.9-1.8c0.2-0.3,0.3-0.7,0.1-1.1c-0.3-0.6-0.8-1.2-1.5-1.6
	L469.2,269.5z"/>
<path class="st0" d="M484.2,251.1l12,8.1l0.4-0.6c1.3-1.9,1.6-3.6,1-5.2c-0.9-2-2.3-3.8-4.1-5.1l0.6-0.9l15.5,10.5l-0.6,0.8
	c-1.5-0.9-3.2-1.5-4.9-1.7c-1.2-0.2-2.4,0-3.5,0.5c-1.1,0.7-2.1,1.6-2.7,2.7l8.3,5.7c0.9,0.7,2,1.4,3.1,1.8c0.5,0.1,1,0.1,1.4-0.2
	c0.7-0.4,1.2-0.9,1.6-1.6l1.2-1.7c1.8-2.8,2.7-5.4,2.6-7.9c-0.2-2.5-1.2-5-3.4-7.5l0.6-0.8l8.5,7.7L504.3,281l-0.8-0.5l0.7-1
	c0.5-0.7,0.8-1.5,1-2.3c0-0.6-0.1-1.1-0.4-1.6c-0.8-0.8-1.6-1.5-2.6-2.1l-19.5-13.1c-0.8-0.6-1.6-1.2-2.5-1.6
	c-0.5-0.2-1.2-0.2-1.7,0c-0.9,0.4-1.7,1-2.2,1.8l-0.7,1l-0.8-0.5l16.9-24.5l8.7,5.9l-0.6,0.8c-1.8-0.9-3.8-1.3-5.8-1.3
	c-1.6,0.1-3.1,0.8-4.2,1.8c-1.4,1.2-2.5,2.7-3.5,4.2L484.2,251.1z"/>
<path class="st0" d="M508.9,219l10.8,9.7l0.5-0.6c1.4-1.3,2-3.2,1.6-5c-0.6-2.1-1.8-4-3.3-5.6l0.7-0.7l13.9,12.4l-0.7,0.7
	c-1.4-1-3-1.8-4.6-2.4c-1.1-0.4-2.4-0.4-3.5,0c-1.2,0.6-2.3,1.4-3.1,2.5l7.5,6.6c0.8,0.9,1.8,1.6,2.8,2.2c0.5,0.2,1,0.2,1.5,0
	c0.7-0.3,1.3-0.7,1.8-1.3l1.4-1.6c2-2,3.3-4.6,3.6-7.4c0.1-2.8-0.7-5.6-2.3-7.9l0.6-0.7l7.4,8.7l-20.6,22.8l-0.7-0.7l0.8-0.8
	c0.6-0.6,1.1-1.4,1.3-2.2c0.1-0.6,0-1.1-0.3-1.6c-0.6-0.9-1.4-1.7-2.3-2.4l-17.5-15.5c-0.7-0.7-1.5-1.4-2.3-1.9
	c-0.5-0.3-1.1-0.4-1.7-0.2c-0.9,0.3-1.8,0.8-2.4,1.6l-0.8,0.9l-0.8-0.7l20-22.1l7.8,7l-0.6,0.7c-1.7-1.1-3.6-1.8-5.6-2.1
	c-1.6,0-3.1,0.4-4.5,1.3c-1.5,1.1-2.9,2.3-4,3.8L508.9,219z"/>
<path class="st0" d="M551.8,194.2l19.5,4.4c2.1,0.5,4.2,0.7,6.4,0.6c1-0.1,2-0.5,2.8-1.2l0.6,0.8l-14.4,11.6l-0.6-0.8
	c0.6-0.5,1.1-1.1,1.5-1.8c0.1-0.4,0-0.8-0.2-1.1c-0.5-0.6-2-1.1-4.5-1.7l-12.9-2.9l-0.3,1.7l6.1,7.5c0.7,1,1.5,1.8,2.4,2.5
	c0.5,0.2,1.1,0.3,1.7,0.2c0.9-0.3,1.8-0.8,2.5-1.4l0.6,0.7l-14,11.2l-0.7-0.8l1-0.8c0.7-0.5,1.3-1.2,1.6-2c0.2-0.5,0.2-1.1,0-1.6
	c-0.5-1-1.1-1.9-1.9-2.7l-14.8-18.2c-0.6-0.9-1.4-1.8-2.4-2.4c-0.5-0.3-1.1-0.4-1.7-0.3c-0.8,0.2-1.6,0.6-2.2,1.1l-0.9,0.8l-0.6-0.8
	l13.8-11l0.6,0.8c-0.8,0.6-1.4,1.3-1.9,2.1c-0.2,0.5-0.2,1.1-0.1,1.6c0.4,1,1.1,2,1.9,2.8l7,8.6l3.6-16.5c0.6-2.3,0.5-3.8,0-4.5
	c-0.5-0.5-1.2-0.7-1.9-0.5c-0.9,0.3-1.7,0.8-2.5,1.5l-0.7-0.8l10.9-8.7l0.6,0.7c-0.8,0.6-1.4,1.4-1.9,2.3c-0.7,1.9-1.2,3.9-1.6,5.9
	L551.8,194.2z"/>
<path class="st0" d="M605.1,162.7l17.8,9.4c1.9,1.1,3.9,1.8,6,2.3c1,0.2,2.1,0.1,3-0.4l0.5,0.9l-17,7.2l-0.4-0.9
	c0.7-0.3,1.3-0.8,1.8-1.4c0.2-0.3,0.2-0.8,0.1-1.2c-0.3-0.7-1.5-1.6-3.8-2.8l-11.6-6.2l-0.8,1.5l3.8,8.9c0.4,1.1,0.9,2.1,1.6,3
	c0.4,0.4,1,0.6,1.5,0.6c1,0,2-0.3,2.9-0.7l0.4,0.9l-16.6,7.1l-0.4-0.9l1.1-0.4c0.8-0.3,1.6-0.8,2.2-1.5c0.3-0.5,0.4-1,0.4-1.6
	c-0.2-1.1-0.5-2.2-1-3.1l-9.3-21.5c-0.4-1.1-0.9-2.1-1.6-3c-0.4-0.4-1-0.6-1.6-0.6c-0.8-0.1-1.6,0.1-2.4,0.5l-1.1,0.5l-0.4-0.9
	l16.3-6.9l0.4,0.9c-0.9,0.3-1.7,0.8-2.3,1.5c-0.4,0.4-0.5,1-0.5,1.6c0.2,1.1,0.5,2.2,1.1,3.2l4.4,10.2l7.9-14.9
	c1.1-2.1,1.5-3.5,1.2-4.4c-0.3-0.6-1-1-1.7-1c-1,0.1-1.9,0.4-2.8,0.8l-0.4-0.9l12.8-5.5l0.4,0.9c-0.9,0.4-1.8,1-2.5,1.8
	c-1.1,1.7-2.1,3.4-3,5.2L605.1,162.7z"/>
<path class="st0" d="M640.7,137.5l21.2,18.6l-2.6-15c-0.3-2.1-0.9-3.4-1.6-4.1c-1-0.9-2.5-1.1-4.4-0.8l-0.1-0.9l11.6-2l0.2,1
	c-1,0.2-2,0.6-2.9,1.2c-0.5,0.4-0.8,1-1,1.6c-0.1,1.2-0.1,2.4,0.2,3.6l5.1,29.1l-0.9,0.1l-28.9-25l3.8,22.2c0.3,2,1,3.2,2.1,3.8
	c1,0.5,2.2,0.7,3.4,0.5l0.8-0.2l0.2,1l-12.4,2.1l-0.2-0.9c2-0.4,3.2-1,3.9-1.9c0.7-1.3,0.9-2.7,0.5-4.1l-4.4-24.6l-0.9-0.8
	c-0.7-0.6-1.4-1.1-2.3-1.5c-0.8-0.2-1.7-0.2-2.6-0.1l-0.2-0.9L640.7,137.5z"/>
<path class="st0" d="M697,133.3c5.7,0.2,10.2,2.1,13.5,5.8c3.3,3.7,4.9,8.5,4.5,13.4c-0.2,4.3-1.9,8.4-4.8,11.6
	c-3.8,4.3-8.9,6.2-15.3,5.8c-6.4-0.4-11.2-2.9-14.4-7.4c-2.5-3.6-3.7-8-3.3-12.4c0.4-9.8,8.6-17.3,18.4-16.9
	C696,133.2,696.5,133.3,697,133.3 M697.2,135c-3.3-0.2-5.8,1.2-7.8,4.5c-1.6,2.6-2.5,6.5-2.9,11.5c-0.4,6,0.4,10.5,2.3,13.5
	c1.3,2.1,3.6,3.4,6.1,3.4c1.6,0.2,3.2-0.2,4.6-1c1.8-1.3,3.2-3,4-5.1c1.1-3,1.8-6.2,1.9-9.5c0.3-4.7,0-8.2-0.7-10.6
	c-0.4-2-1.5-3.8-3-5.1C700.5,135.7,698.9,135.1,697.2,135"/>
<path class="st0" d="M780,154.7l-0.3,0.9c-0.6-0.2-1.2-0.2-1.8-0.1c-0.6,0.2-1.2,0.5-1.6,0.9c-0.1,0.2-1.2,1.3-2.9,3.3l-20.5,23.8
	l-0.9-0.3l-0.6-24.4L734.5,177l-0.9-0.4l-1.2-31.1c0-2-0.2-3.9-0.5-5.8c-0.4-0.8-1.1-1.5-1.9-1.8l0.3-1l14.5,5.2l-0.3,0.9
	c-0.8-0.3-1.7-0.4-2.5-0.2c-0.5,0.1-0.9,0.5-1,1c-0.3,1.4-0.4,2.9-0.2,4.4l0.7,18.6l9.9-10.8l-0.1-4.1c0-1.5-0.1-3-0.3-4.4
	c-0.1-0.7-0.5-1.4-0.9-2c-0.6-0.6-1.4-1-2.2-1.3l0.3-0.9l16.3,5.8l-0.3,0.9c-0.8-0.3-1.7-0.5-2.5-0.6c-0.4,0-0.7,0.1-1,0.3
	c-0.3,0.2-0.5,0.5-0.6,0.8c-0.2,1.3-0.3,2.6-0.2,3.9l0.5,18l10.6-12.4c0.8-0.8,1.5-1.7,2.1-2.6c0.3-0.4,0.6-0.9,0.8-1.4
	c0.2-0.6,0.1-1.3-0.2-1.9c-0.7-0.7-1.5-1.3-2.4-1.5l0.3-0.9L780,154.7z"/>
<path class="st0" d="M805.3,198.4l-8,9.7l-26.5-17.3l0.5-0.8l1,0.6c0.7,0.5,1.6,0.8,2.4,0.9c0.6,0,1.1-0.1,1.5-0.5
	c0.8-0.7,1.5-1.6,2.1-2.6l12.9-19.5c0.7-0.9,1.2-1.9,1.7-3c0.1-0.6-0.1-1.2-0.4-1.6c-0.4-0.7-1-1.3-1.7-1.7l-1-0.6l0.5-0.8
	l15.9,10.4l-0.6,0.8l-1.3-0.8c-0.7-0.5-1.5-0.9-2.4-1c-0.6,0-1.1,0.2-1.6,0.5c-0.8,0.7-1.5,1.6-2,2.6l-12.6,19
	c-0.7,0.9-1.3,1.9-1.7,3c-0.1,0.6,0.1,1.1,0.4,1.6c0.8,0.7,1.6,1.4,2.6,1.9l2.5,1.6c1.3,0.9,2.9,1.5,4.5,1.8
	c1.5,0.1,3.1-0.2,4.5-0.8c2-1,3.9-2.3,5.7-3.8L805.3,198.4z"/>
<path class="st0" d="M835.7,197.1l-9.9,10.6l0.5,0.4c1.3,1.5,3.2,2.1,5.1,1.9c2.1-0.6,4.1-1.7,5.7-3.2l0.7,0.7l-12.8,13.5l-0.8-0.7
	c1.1-1.3,1.9-2.9,2.5-4.5c0.4-1.1,0.4-2.3,0.1-3.5c-0.5-1.2-1.3-2.3-2.4-3.1l-6.9,7.3c-0.9,0.8-1.6,1.7-2.3,2.8
	c-0.2,0.4-0.2,0.9-0.1,1.4c0.3,0.7,0.7,1.3,1.3,1.8l1.6,1.4c2,2,4.6,3.4,7.4,3.8c2.8,0.1,5.6-0.6,8-2.2l0.7,0.7l-8.9,7.1l-22.6-21
	l0.6-0.7l0.9,0.8c0.6,0.6,1.4,1.1,2.2,1.3c0.5,0.1,1.1,0,1.6-0.2c1-0.6,1.8-1.3,2.5-2.2l16-17c0.7-0.7,1.4-1.5,2-2.3
	c0.3-0.5,0.4-1.1,0.2-1.7c-0.2-0.9-0.8-1.8-1.5-2.3l-0.8-0.8l0.6-0.7l21.8,20.3l-7.2,7.6l-0.8-0.7c1.2-1.6,1.9-3.5,2.3-5.5
	c0-1.6-0.4-3.1-1.1-4.4c-1.1-1.5-2.3-2.9-3.7-4.1L835.7,197.1z"/>
<path class="st0" d="M830.3,238.2l0.8-0.6l0.7,0.9c0.5,0.7,1.1,1.2,1.9,1.5c0.6,0.2,1.2,0.3,1.8,0.1c1-0.5,2-1.1,2.8-1.8l18.5-14.3
	c0.9-0.7,1.8-1.4,2.5-2.3c0.3-0.5,0.4-1.1,0.2-1.7c-0.2-0.8-0.5-1.5-1.1-2.1l-0.7-0.9l0.8-0.6l9.9,12.5c2.6,3.4,4.3,6.3,4.9,9.1
	c0.9,3.2,0.7,6.5-0.7,9.6c-1.3,3.2-3.5,5.9-6.2,8c-1.9,1.4-4,2.5-6.2,3.2c-1.9,0.6-4,0.9-6,0.8c-1.9-0.2-3.7-0.7-5.3-1.4
	c-1.9-1-3.7-2.2-5.3-3.6c-1.2-1.2-2.4-2.4-3.3-3.8L830.3,238.2z M865.3,228.2l-22,17c-0.8,0.5-1.5,1.1-2.1,1.8
	c-0.2,0.3-0.2,0.7-0.1,1.1c0.1,0.7,0.5,1.3,1,1.8c1.5,2.1,3.9,3.3,6.5,3.4c3.4,0,7.4-1.7,11.9-5.2c3.6-2.8,6.1-5.6,7.4-8.4
	c0.9-1.9,1.2-4,0.7-6.1C867.7,231.6,866.6,229.8,865.3,228.2"/>
<path class="st0" d="M905.5,284.6l-11,6.1l-0.5-0.9c2.2-2.3,3.7-5.3,4.2-8.4c0.5-2.8,0-5.6-1.5-8c-1.1-2.1-3-3.7-5.2-4.6
	c-2.4-0.8-4.9-0.9-7.3-0.2c-2.7,0.7-5.3,1.7-7.8,3.1c-2.7,1.4-5.2,3.3-7.3,5.5c-1.7,1.6-2.8,3.8-3,6.1c-0.2,2.2,0.4,4.5,1.5,6.4
	c0.4,0.8,1,1.5,1.5,2.1c0.6,0.7,1.3,1.4,2.1,2l6.5-3.6c0.8-0.4,1.6-0.9,2.2-1.6c0.3-0.5,0.4-1,0.4-1.6c0-0.8-0.3-1.5-0.7-2.1
	l-0.4-0.8l0.8-0.4l8.5,15l-0.8,0.5c-0.5-0.8-1.1-1.5-1.8-2.1c-0.5-0.4-1.1-0.5-1.8-0.4c-0.8,0.2-1.6,0.5-2.3,1l-6.5,3.6
	c-2-1.5-3.8-3.1-5.5-5c-1.7-1.9-3.2-4-4.5-6.3c-1.5-2.4-2.5-5.2-2.9-8c-0.3-2.3-0.2-4.6,0.2-6.9c0.4-2.1,1.3-4.1,2.5-5.9
	c4.7-6.6,13.1-9.6,20.9-7.3c5.1,1.4,9.4,4.9,11.8,9.6c0.8,1.4,1.5,2.8,2,4.3c0.4,1.2,0.6,2.5,0.8,3.8c0.1,1.1,0.3,2.1,0.7,3.1
	c0.2,0.4,0.6,0.8,1.1,0.9c0.8,0.2,1.6,0.2,2.4,0L905.5,284.6z"/>
<path class="st0" d="M913.8,310.3l-13.5,5.3l0.3,0.7c0.6,1.8,2,3.2,3.8,3.8c2.2,0.3,4.5,0.2,6.6-0.5l0.4,0.9l-17.3,6.9l-0.4-0.9
	c1.5-0.8,2.9-1.8,4.1-3.1c0.8-0.9,1.4-2,1.5-3.2c0-1.3-0.3-2.6-0.8-3.8l-9.3,3.7c-1.1,0.4-2.2,0.9-3.3,1.6c-0.3,0.4-0.5,0.8-0.6,1.2
	c0,0.8,0.1,1.5,0.4,2.2l0.8,1.9c1,2.7,2.8,5,5.2,6.6c2.5,1.3,5.4,1.8,8.2,1.3l0.4,0.9l-11.1,2.7l-11.5-28.4l0.9-0.4l0.4,1
	c0.3,0.8,0.8,1.6,1.5,2.1c0.5,0.4,1,0.5,1.6,0.5c1.1-0.2,2.2-0.5,3.2-0.9l21.8-8.7c0.9-0.4,1.9-0.8,2.7-1.2c0.5-0.4,0.8-0.9,1-1.4
	c0.1-1,0-1.9-0.4-2.8l-0.4-1.1l0.9-0.3l11.1,27.5l-9.7,3.9l-0.4-0.9c1.7-1,3.2-2.4,4.4-4c0.7-1.4,1-3,0.8-4.6
	c-0.3-1.8-0.8-3.6-1.6-5.3L913.8,310.3z"/>
<path class="st0" d="M446.8,488.5l-22,21.6l16.7-1.8c2.3-0.2,3.9-0.7,4.6-1.5c1-1,1.4-2.6,1.1-4.7l1.1-0.1l1.4,12.7l-1,0.1
	c-0.2-1.1-0.6-2.2-1.2-3.2c-0.5-0.6-1.1-1-1.8-1.1c-1.3-0.3-2.6-0.3-3.9,0l-32.4,3.5l-0.1-1l29.5-29.5l-24.7,2.7
	c-2.2,0.2-3.7,0.9-4.3,2c-0.7,1.1-1,2.4-0.8,3.6l0.1,0.9l-1,0.1l-1.5-13.7l1.1-0.1c0.2,2.1,0.8,3.6,1.7,4.3c1.4,0.8,3,1.1,4.5,0.8
	l27.4-3l0.9-0.9c0.8-0.6,1.4-1.5,1.8-2.4c0.3-0.9,0.4-1.8,0.3-2.8l1-0.1L446.8,488.5z"/>
<path class="st0" d="M454.7,536.4c1.5,6,0.8,11.3-2.1,15.9c-3,4.5-7.7,7.7-13,8.6c-4.6,1.1-9.4,0.6-13.7-1.5
	c-5.7-2.7-9.3-7.4-10.7-14.2c-1.5-6.8-0.3-12.6,3.6-17.3c3.1-3.7,7.4-6.3,12.2-7.2c5.3-1.3,10.9-0.3,15.4,2.7
	C450.8,526.3,453.9,531,454.7,536.4 M453,537.1c-0.8-3.5-3.1-5.7-7.1-6.8c-3.2-0.9-7.6-0.7-13.1,0.5c-6.5,1.4-11.1,3.5-13.7,6.5
	c-1.8,2-2.5,4.7-1.8,7.3c0.3,1.7,1.2,3.3,2.4,4.5c1.9,1.5,4.2,2.5,6.6,2.6c3.6,0.3,7.2,0,10.6-0.8c5-1,8.7-2.4,11-3.8
	c2-1.1,3.6-2.7,4.6-4.7C453.3,540.8,453.4,538.9,453,537.1"/>
<path class="st0" d="M443.1,578l-10.4,3.4c-2,0.7-3.3,1.2-3.7,1.7c-0.5,0.4-0.8,1-0.9,1.7c0,1.2,0.2,2.4,0.7,3.6l-1.1,0.3l-6.1-18.8
	l1-0.3c0.3,1.2,0.8,2.3,1.6,3.3c0.4,0.5,1,0.8,1.6,0.9c1.3-0.1,2.7-0.3,3.9-0.8L454,565c1.3-0.3,2.5-0.9,3.6-1.6
	c0.5-0.5,0.7-1.1,0.8-1.7c0.1-1.2-0.2-2.5-0.7-3.6l1.1-0.4l5.6,17.2c1.2,3.2,2,6.6,2.3,10.1c0.1,2.2-0.5,4.3-1.8,6.1
	c-1.2,1.9-3.1,3.2-5.2,3.9c-2.6,0.9-5.4,0.6-7.8-0.7c-1.7-1.1-3.2-2.6-4.3-4.4l-9.6,12.9c-0.9,1-1.6,2.2-2.2,3.4
	c-0.3,0.9-0.4,1.9-0.1,2.9l-0.9,0.3l-3.9-11.6l13-17.4L443.1,578z M461.4,572.2l-16.2,5.3l0.5,1.5c0.5,1.9,1.4,3.8,2.5,5.4
	c0.9,1.1,2.1,1.9,3.5,2.1c1.7,0.3,3.5,0.2,5.1-0.4c2.9-0.9,4.7-2.2,5.7-4c0.9-1.8,0.9-4.1-0.1-7L461.4,572.2z"/>
<path class="st0" d="M486.5,629.3l-9.6,4.3l-0.4-1c1.5-1.1,2.9-2.4,4-4c0.7-1.2,1.1-2.5,1.1-3.9c-0.1-1.3-0.5-2.5-1.2-3.7l-1.1-2.6
	l-27.5,12.2c-1.2,0.4-2.3,1-3.3,1.8c-0.4,0.5-0.7,1-0.7,1.7c0,0.9,0.2,1.8,0.6,2.6l0.5,1.2l-1,0.5l-8.4-18.5l1-0.5l0.6,1.2
	c0.4,0.9,0.9,1.6,1.6,2.2c0.5,0.4,1.1,0.6,1.8,0.5c1.2-0.2,2.3-0.6,3.4-1.2l27.6-12.2l-1.1-2.6c-1.1-2.4-2.4-3.9-3.9-4.5
	c-2.4-0.9-5-1-7.4-0.2l-0.4-1l9.6-4.3L486.5,629.3z"/>
<path class="st0" d="M477.2,653.7l-10.4,6.2c-1.1,0.6-2.1,1.3-3,2.2c-0.3,0.5-0.5,1.2-0.5,1.8c0.1,0.9,0.4,1.7,0.9,2.5l0.7,1.1
	l-0.9,0.5l-10.5-17.4l0.9-0.5l0.6,1.1c0.5,0.8,1.2,1.5,2,2c0.5,0.3,1.2,0.4,1.8,0.2c1.2-0.4,2.3-0.9,3.3-1.6l22-13.1
	c1.1-0.5,2.2-1.3,3.1-2.2c0.3-0.5,0.5-1.1,0.5-1.7c0-0.9-0.3-1.8-0.8-2.5l-0.7-1.1l0.9-0.6l10.5,17.4l-1,0.5l-0.7-1.1
	c-0.5-0.8-1.1-1.5-1.9-2c-0.5-0.3-1.2-0.4-1.8-0.3c-1.2,0.4-2.2,0.9-3.3,1.6l-9.5,5.7l7.1,11.8l9.6-5.6c1.1-0.6,2.1-1.3,3-2.2
	c0.4-0.5,0.5-1.1,0.5-1.8c-0.1-0.9-0.4-1.8-0.9-2.5l-0.7-1.1l1-0.5l10.5,17.3l-0.9,0.6l-0.7-1.1c-0.4-0.9-1.1-1.6-1.9-2
	c-0.5-0.4-1.1-0.5-1.8-0.4c-1.2,0.4-2.3,0.9-3.3,1.6l-22.1,13.1c-1.1,0.6-2.1,1.3-3,2.2c-0.4,0.5-0.5,1.1-0.5,1.7
	c0.1,0.9,0.4,1.8,0.9,2.5l0.6,1.1l-0.9,0.5l-10.4-17.3l1-0.6l0.6,1.1c0.5,0.9,1.1,1.5,2,2c0.5,0.3,1.2,0.4,1.8,0.3
	c1.2-0.3,2.3-0.9,3.2-1.6l10.4-6.1L477.2,653.7z"/>
<path class="st0" d="M545.4,708l-9.3,9.1l-0.8-0.8c1.9-2.4,2.9-5.3,2.9-8.3c0.1-2.6-0.9-5.2-2.7-7.1c-1.1-1.3-2.6-2.1-4.3-2.3
	c-1.4-0.2-2.8,0.3-3.9,1.2c-0.6,0.5-1,1.2-1.2,2c-0.3,1.2-0.3,2.5-0.1,3.7c0.5,2.3,1.1,4.6,1.8,6.8c1.5,4.8,2.1,8.5,1.7,11
	c-0.3,2.4-1.5,4.7-3.3,6.3c-2.3,2.2-5.5,3.3-8.7,3c-3.6-0.2-6.9-1.9-9.2-4.6c-0.8-0.8-1.5-1.7-2.1-2.8c-0.7-1.3-1.3-2.6-1.8-4
	c-0.3-0.7-0.7-1.4-1.2-2c-0.4-0.4-0.9-0.6-1.5-0.7c-0.7-0.1-1.5,0-2.2,0.3l-0.7-0.8l10.8-10l0.7,0.8c-2.2,2.9-3.4,6.3-3.6,9.9
	c0,2.9,1,5.7,3,7.9c1.2,1.4,2.9,2.3,4.8,2.5c1.6,0.2,3.2-0.3,4.4-1.4c0.7-0.7,1.1-1.4,1.4-2.3c0.3-1.1,0.4-2.2,0.3-3.3
	c-0.3-2-0.8-4-1.4-5.9c-1-2.8-1.7-5.6-2.1-8.5c-0.2-1.8,0-3.6,0.5-5.4c1.6-4.6,6.1-7.5,10.9-7.2c3.2,0.2,6.2,1.6,8.3,4
	c0.9,0.9,1.6,1.9,2.2,3c0.5,1,1,2.1,1.3,3.2c0.2,0.9,0.6,1.8,1.1,2.6c0.3,0.3,0.7,0.5,1.1,0.5c0.8-0.1,1.5-0.5,2.2-0.9L545.4,708z"
	/>
<path class="st0" d="M564.3,724.8c5,3.6,7.9,8.2,8.5,13.6c0.7,5.3-0.9,10.7-4.4,14.8c-2.9,3.7-7,6.4-11.6,7.5
	c-6.1,1.5-11.9,0.2-17.4-4.2c-5.5-4.3-8.3-9.5-8.4-15.6c0-4.8,1.7-9.5,4.8-13.2c3.3-4.3,8.3-7.1,13.7-7.6
	C554.9,719.4,560.3,721.1,564.3,724.8 M563.5,726.4c-2.8-2.2-6.1-2.4-9.8-0.8c-3,1.4-6.3,4.3-9.8,8.7c-4.2,5.2-6.3,9.7-6.4,13.6
	c-0.2,2.7,1.1,5.3,3.4,6.8c1.3,1.1,3,1.8,4.7,2c2.4-0.1,4.8-0.8,6.8-2.2c2.9-2,5.5-4.5,7.7-7.3c3.2-4,5.2-7.3,6-9.9
	c0.8-2.1,1-4.3,0.5-6.5C565.9,729.1,564.9,727.6,563.5,726.4"/>
<path class="st0" d="M580.6,738.2l17.9,9.2l-0.5,1l-0.9-0.5c-0.9-0.6-1.9-0.9-3-1c-0.6,0-1.2,0.2-1.7,0.6c-0.9,1.1-1.7,2.2-2.3,3.5
	l-8.8,16.8c-1.7,3.1-2.5,5.2-2.5,6.5c0,1.3,0.3,2.5,1,3.6c0.8,1.4,2.1,2.5,3.5,3.2c1.7,0.9,3.5,1.4,5.4,1.2c1.8-0.1,3.4-0.8,4.8-1.9
	c1.4-1.1,3.1-3.5,5.1-7.2l7.4-14c0.6-1.1,1.1-2.3,1.2-3.5c0.1-0.7-0.1-1.4-0.5-2c-0.8-1-1.8-1.8-3-2.3l0.5-0.9l12,6.2l-0.5,1
	l-0.8-0.3c-0.8-0.5-1.8-0.8-2.7-0.8c-0.9,0.1-1.7,0.4-2.3,1c-0.8,0.8-1.4,1.7-1.9,2.8l-6.9,13c-2.1,4.1-3.9,6.8-5.4,8.3
	c-1.8,1.7-4.1,2.7-6.5,2.9c-2.8,0.5-6.1-0.3-9.7-2.2c-2.4-1.1-4.6-2.8-6.3-4.8c-1.5-1.9-2.4-4.2-2.5-6.5c0.1-2.7,0.8-5.3,2.2-7.6
	l8.9-16.8c0.7-1.2,1.3-2.5,1.6-3.8c0-0.6-0.2-1.2-0.5-1.8c-0.8-0.8-1.7-1.5-2.8-1.9L580.6,738.2z"/>
<path class="st0" d="M649.9,766.4l-2.9,10.1l-1-0.3c0.2-1.9,0-3.8-0.5-5.6c-0.4-1.3-1.2-2.4-2.2-3.3c-1.1-0.7-2.3-1.3-3.5-1.6
	l-2.8-0.8l-8.6,28.7c-0.4,1.2-0.7,2.4-0.7,3.7c0.1,0.6,0.4,1.2,0.9,1.6c0.7,0.6,1.5,1,2.4,1.3l1.2,0.4l-0.3,1.1l-19.6-5.7l0.3-1.1
	l1.2,0.4c0.9,0.3,1.9,0.4,2.8,0.2c0.6-0.1,1.2-0.5,1.6-1c0.6-1,1-2.2,1.3-3.4l8.5-28.7l-2.7-0.8c-2.5-0.8-4.5-0.8-6,0
	c-2.2,1.2-3.9,3.1-4.8,5.4l-1-0.3l3-10.1L649.9,766.4z"/>
<path class="st0" d="M663.3,787.9l-0.8,12c-0.2,1.2-0.2,2.5,0,3.7c0.2,0.6,0.6,1.1,1.2,1.4c0.8,0.5,1.7,0.7,2.6,0.7l1.3,0.1l0,1
	l-20.4-1.4l0.1-1.1l1.2,0.1c1,0.1,1.9-0.1,2.8-0.4c0.5-0.3,1-0.8,1.2-1.3c0.4-1.1,0.5-2.3,0.5-3.5l1.8-25.4c0.1-1.2,0.1-2.5-0.1-3.7
	c-0.2-0.6-0.7-1.1-1.2-1.4c-0.8-0.4-1.7-0.7-2.6-0.7l-1.3-0.1l0.1-1l20.4,1.4l-0.1,1l-1.2-0.1c-1-0.1-2,0.1-2.9,0.4
	c-0.5,0.3-1,0.8-1.2,1.3c-0.4,1.2-0.6,2.4-0.5,3.6l-0.8,11l13.8,0.9l0.7-11c0.2-1.2,0.2-2.5,0-3.7c-0.3-0.6-0.7-1.1-1.2-1.4
	c-0.8-0.5-1.7-0.7-2.6-0.7l-1.2-0.1l0.1-1l20.3,1.4l0,1l-1.2-0.1c-0.9-0.1-1.9,0-2.8,0.4c-0.6,0.3-1,0.7-1.3,1.3
	c-0.4,1.2-0.6,2.4-0.5,3.6l-1.7,25.3c-0.2,1.2-0.2,2.5,0,3.8c0.2,0.6,0.6,1.1,1.2,1.4c0.8,0.5,1.7,0.7,2.6,0.7l1.2,0.1v1.1
	l-20.4-1.4l0.1-1l1.2,0.1c0.9,0.1,1.9,0,2.8-0.4c0.6-0.3,1-0.8,1.3-1.3c0.4-1.1,0.6-2.3,0.6-3.5l0.8-12L663.3,787.9z"/>
<path class="st0" d="M745.2,758.8l18.1-8.7l0.5,1l-0.9,0.4c-1,0.4-1.9,1-2.6,1.8c-0.3,0.5-0.5,1.1-0.5,1.7c0.3,1.3,0.8,2.6,1.5,3.9
	l8.4,17.1c1.5,3.1,2.8,5.1,3.8,5.9c1,0.8,2.3,1.3,3.5,1.4c1.6,0.1,3.2-0.3,4.6-1c1.7-0.8,3.2-2,4.2-3.6c0.9-1.5,1.4-3.2,1.3-5
	c-0.1-1.8-1-4.5-2.9-8.2l-6.9-14.2c-0.5-1.2-1.2-2.3-2.1-3.2c-0.5-0.4-1.2-0.7-1.9-0.8c-1.3,0.1-2.5,0.4-3.6,1l-0.4-1l12.2-5.8
	l0.4,0.9l-0.8,0.4c-0.9,0.4-1.6,1-2.1,1.8c-0.5,0.7-0.7,1.6-0.6,2.5c0.1,1.1,0.5,2.2,1.1,3.1l6.5,13.2c1.5,2.9,2.7,6,3.5,9.3
	c0.3,2.4-0.3,4.9-1.5,7c-1.4,2.5-3.9,4.7-7.5,6.4c-2.3,1.3-4.9,2-7.6,2.2c-2.4,0.1-4.9-0.5-6.9-1.9c-2-1.7-3.7-3.8-4.7-6.2
	l-8.4-17.1c-1-2-1.7-3.2-2.2-3.5c-0.5-0.4-1.1-0.6-1.7-0.6c-1.2,0.1-2.3,0.4-3.3,1L745.2,758.8z"/>
<path class="st0" d="M791.4,733.9l30,8l-10-13.4c-1.4-1.9-2.6-3-3.7-3.2c-1.4-0.4-2.9,0.2-4.7,1.4l-0.7-0.8l10.4-7.6l0.6,0.8
	c-0.9,0.7-1.6,1.6-2.1,2.6c-0.3,0.7-0.4,1.4-0.1,2.1c0.4,1.2,1.1,2.4,1.9,3.4l19.3,26l-0.8,0.6L791,743.4l14.8,19.8
	c1.3,1.8,2.6,2.7,3.9,2.8c1.3,0,2.6-0.4,3.6-1.2l0.7-0.5l0.7,0.9l-11.2,8.1l-0.6-0.8c1.7-1.3,2.7-2.5,2.8-3.7
	c0.1-1.2-0.3-2.6-1.6-4.2l-16.3-22l-1.3-0.3c-0.9-0.3-1.9-0.4-2.9-0.4c-0.9,0.2-1.8,0.6-2.5,1.2l-0.7-0.9L791.4,733.9z"/>
<path class="st0" d="M853.6,730.9l0.7,0.8l-14.8,14l-0.7-0.8l0.9-0.9c0.7-0.6,1.3-1.4,1.6-2.3c0.1-0.6,0.1-1.2-0.2-1.8
	c-0.6-1.1-1.4-2-2.3-2.8l-17.7-18.4c-0.8-1-1.8-1.8-2.8-2.5c-0.6-0.2-1.2-0.3-1.8-0.1c-0.9,0.2-1.7,0.7-2.3,1.4l-0.9,0.9l-0.8-0.8
	l14.8-14l0.8,0.8l-0.9,0.9c-0.7,0.6-1.3,1.4-1.6,2.3c-0.2,0.6-0.1,1.2,0.1,1.8c0.6,1.1,1.4,2,2.3,2.9l17.7,18.4
	c0.8,1,1.8,1.8,2.9,2.5c0.6,0.2,1.2,0.2,1.9,0.1c0.8-0.3,1.6-0.7,2.2-1.4L853.6,730.9z"/>
<path class="st0" d="M854.5,672.4l0.8,0.7c-0.8,1.3-1.1,2.9-0.8,4.3c0.7,2.5,1.7,4.8,2.9,7.1l14.3,29.2l-0.6,0.7l-32.5-9.5
	c-2.3-0.8-4.7-1.4-7.2-1.7c-1.1,0.2-2.1,0.7-2.9,1.5l-0.8-0.6l12-14.3l0.8,0.7l-0.4,0.5c-0.9,0.8-1.5,1.8-1.8,3c0,0.5,0.2,1,0.6,1.3
	c0.3,0.3,0.7,0.5,1.1,0.6c0.4,0.2,1.7,0.6,3.9,1.2l20.3,6l-8.3-16.9c-0.6-1.4-1.4-2.7-2.2-4c-0.3-0.5-0.7-1-1.2-1.4
	c-0.4-0.4-0.9-0.6-1.5-0.6c-0.6,0-1.1,0.1-1.6,0.4c-1,0.6-1.9,1.3-2.6,2.2l-0.8-0.7L854.5,672.4z"/>
<path class="st0" d="M864,661.3l13.4,8.5l0.4-0.6c1.3-2.1,1.7-4,1-5.7c-1.1-2.2-2.7-4.1-4.7-5.5l0.5-0.9l17.3,10.9l-0.6,1
	c-1.7-0.9-3.5-1.5-5.4-1.7c-1.3-0.2-2.6,0-3.8,0.6c-1.2,0.8-2.2,1.9-2.9,3.2l9.3,5.9c1.1,0.8,2.2,1.4,3.5,1.9c0.5,0.1,1.1,0,1.5-0.2
	c0.7-0.4,1.3-1.1,1.7-1.8l1.2-2c2-3.1,2.8-5.9,2.6-8.6c-0.4-3.1-1.8-5.9-4-8.1l0.6-0.9l9.5,8.1L887,693.3l-0.9-0.6l0.7-1
	c0.6-0.8,0.9-1.7,1-2.7c0-0.6-0.1-1.2-0.5-1.7c-0.9-0.8-1.8-1.6-2.9-2.2l-21.7-13.7c-0.9-0.6-1.9-1.2-2.8-1.6
	c-0.6-0.2-1.3-0.2-1.9,0.1c-1,0.5-1.7,1.2-2.3,2.1l-0.7,1.1l-1-0.6l17.6-27.4l9.7,6.1l-0.6,0.9c-2-0.9-4.2-1.3-6.4-1.2
	c-1.7,0.2-3.3,1-4.6,2.1c-1.4,1.4-2.7,3-3.7,4.8L864,661.3z"/>
<path class="st0" d="M899.7,637.6l9.9,4.8c1.2,0.7,2.4,1.1,3.8,1.4c0.6,0,1.3-0.2,1.8-0.6c0.9-0.9,1.5-1.9,2-3.1l0.9,0.5l-8.7,17.8
	l-1-0.5c0.6-1.1,1.1-2.2,1.2-3.5c0-0.6-0.2-1.3-0.6-1.8c-1-0.9-2.1-1.6-3.4-2.1l-22.8-11c-1.2-0.6-2.4-1.1-3.7-1.4
	c-0.7,0-1.3,0.3-1.8,0.7c-0.9,0.8-1.6,1.9-2,3l-1-0.5l7.9-16.2c2.1-4.2,3.9-7.2,5.4-8.9c1.5-1.6,3.5-2.7,5.6-3.2
	c2.2-0.5,4.5-0.2,6.5,0.8c2.5,1.1,4.3,3.3,5.1,5.9c0.5,2,0.5,4.1,0,6.1l15.9-2.6c1.4-0.2,2.7-0.5,4.1-1c0.9-0.4,1.6-1.1,2.1-2l1,0.5
	l-5.4,11l-21.5,3.5L899.7,637.6z M882.4,629.3l15.4,7.5l0.7-1.5c1-1.7,1.7-3.6,2-5.6c0.1-1.4-0.2-2.8-1-4c-1-1.4-2.4-2.5-4-3.2
	c-2.7-1.3-5-1.6-6.8-1s-3.5,2.3-4.9,5.1L882.4,629.3z"/>
<path class="st0" d="M900.2,579.5l12.3,4.2l-0.4,1.1c-3-0.7-6.1-0.3-8.8,1.1c-2.4,1.1-4.2,3.1-5.2,5.5c-0.7,1.5-0.8,3.3-0.2,4.9
	c0.5,1.3,1.5,2.3,2.8,2.8c0.8,0.3,1.6,0.4,2.4,0.2c1.2-0.3,2.4-0.8,3.5-1.6c1.9-1.4,3.7-3,5.3-4.7c3.7-3.5,6.8-5.6,9.2-6.4
	c2.4-0.8,4.9-0.7,7.2,0.2c3,1,5.4,3.4,6.5,6.4c1.4,3.3,1.4,7,0,10.2c-0.4,1.1-0.9,2.2-1.6,3.1c-0.8,1.2-1.8,2.3-2.8,3.4
	c-0.5,0.5-1,1.2-1.3,1.9c-0.2,0.6-0.2,1.2,0,1.7c0.2,0.7,0.6,1.4,1.2,1.8l-0.4,1l-13.9-5.1l0.4-1c4.2,0.7,7.8,0.2,10.6-1.3
	c2.6-1.2,4.7-3.4,5.7-6.1c0.8-1.7,0.8-3.6,0.2-5.4c-0.6-1.5-1.7-2.6-3.2-3.2c-0.9-0.3-1.8-0.4-2.7-0.2c-1.1,0.2-2.2,0.6-3.1,1.2
	c-1.7,1.2-3.2,2.5-4.7,3.9c-2.1,2.1-4.4,4-6.8,5.6c-1.6,1-3.3,1.7-5.1,2c-1.7,0.3-3.5,0.1-5.1-0.5c-2.8-1-5.1-3.2-6.3-6
	c-1.2-2.9-1.2-6.2,0-9.2c0.4-1.2,1-2.2,1.8-3.2c0.7-1,1.4-1.9,2.3-2.6c0.7-0.6,1.3-1.4,1.8-2.2c0.2-0.4,0.2-0.9,0-1.3
	c-0.5-0.6-1.1-1.1-1.7-1.5L900.2,579.5z"/>
<path class="st0" d="M944.8,566.2l1,0.4l-5.7,19.4l-1.1-0.2l0.5-1.3c0.3-0.9,0.3-1.8,0.1-2.7c-0.1-0.6-0.5-1.2-1-1.5
	c-1.1-0.6-2.2-1-3.4-1.3l-24.7-7.1c-1.2-0.5-2.5-0.7-3.7-0.7c-0.6,0.1-1.1,0.4-1.6,0.8c-0.6,0.6-1,1.5-1.2,2.3l-0.4,1.2l-1-0.3
	l5.7-19.4l1,0.3l-0.3,1.3c-0.3,0.9-0.4,1.8-0.2,2.8c0.1,0.6,0.5,1.1,1,1.5c1,0.6,2.2,1.1,3.4,1.3l24.7,7.1c1.2,0.5,2.4,0.7,3.7,0.8
	c0.6-0.1,1.2-0.4,1.6-0.9c0.6-0.6,1.1-1.4,1.3-2.3L944.8,566.2z"/>
<path class="st0" d="M916.5,519.6l10.3,2.2l-0.3,1c-1.9,0-3.8,0.3-5.6,1c-1.2,0.5-2.3,1.4-3.1,2.5c-0.7,1.1-1.1,2.3-1.3,3.6
	l-0.6,2.8l29.5,6.3c1.2,0.3,2.5,0.5,3.7,0.4c0.6-0.1,1.2-0.5,1.6-1c0.6-0.7,1-1.5,1.1-2.4l0.3-1.3l1,0.2l-4.2,19.8l-1-0.2l0.3-1.3
	c0.2-0.9,0.2-1.9,0-2.8c-0.2-0.6-0.6-1.1-1.2-1.4c-1.1-0.5-2.3-0.9-3.5-1.1l-29.5-6.2l-0.5,2.7c-0.6,2.6-0.5,4.5,0.4,5.9
	c1.4,2.1,3.5,3.6,5.9,4.4l-0.3,1.1l-10.3-2.2L916.5,519.6z"/>
<path class="st0" d="M921.6,477.8l1,0.2c0,1.1,0.2,2.1,0.8,3c0.7,1,2.7,2.8,6,5.2l13,10l9.4,1.1c1.2,0.2,2.5,0.2,3.8,0.1
	c0.6-0.2,1.1-0.6,1.4-1.1c0.5-0.7,0.9-1.5,0.9-2.4l0.2-2.2l1.1,0.1l-2.5,21.6l-1.1-0.1l0.2-2c0.1-0.9,0-1.9-0.3-2.8
	c-0.3-0.6-0.7-1-1.2-1.3c-1.2-0.4-2.4-0.7-3.6-0.7l-7.8-0.9l-17.6,7.1c-3.5,1.4-5.6,2.5-6.3,3.1c-0.7,0.8-1.1,1.8-1.2,2.8l-1.1-0.1
	l2.2-18.4l1.1,0.1l-0.1,0.8c-0.2,0.8-0.1,1.6,0.2,2.4c0.3,0.5,0.6,0.8,1,0.8c0.6,0.1,2.5-0.5,5.4-1.6l13.7-5.5l-10.9-8.3
	c-2.7-2-4.5-3.1-5.4-3.2c-0.5-0.1-1,0.1-1.3,0.5c-0.7,1-1.2,2.2-1.3,3.5l-1.1-0.1L921.6,477.8z"/>
<path class="st1" d="M893.3,469.5c0,150.5-94.2,272.6-210.5,272.6S472.3,619.9,472.3,469.5S566.6,197,682.8,197
	S893.3,319,893.3,469.5"/>
<path class="st0" d="M440.1,392.4c0,0,17.9-12.4-6.2-34.6c-5.2,8.5-12.4,20.5-5.9,32c0.5,1.1,2.5,1.9,2.5,1.9v3.4h-6.1v52.7h21.6
	v-53.1h-5.8V392.4z M435.3,389.4c-10.6-5.3-0.9-24-0.9-24c3.7,3.7,6.1,11.8,6.1,14.4C440.5,387.4,437.2,389.4,435.3,389.4"/>
<path class="st0" d="M935.7,396.2c16.5-8.9,3.3-28.5,0-36.8c-24.8,23-7,36.8-7,36.8v3.7h-8.4v53.8h21.8v-53.8h-6.4L935.7,396.2z
	 M931.9,389.8c-12.2-4.4,1.2-22.7,1.2-22.7c5.1,5,7,13.3,6.8,14.9C938.8,389.1,933.4,389.8,931.9,389.8"/>
<path class="st0" d="M588.2,335.9v-95c0,0,36.5-22.3,94.6,12.8c9.9-6.2,45.8-30.5,100.9-13.8v99.7c0,0-90.1-21.4-92.5,22.3h-12
	C679.2,362,684.5,330.6,588.2,335.9"/>
<path class="st1" d="M605.4,320.7v-72.7c0,0,53.2-4.5,75.2,21.4v64C680.6,333.4,663,320.7,605.4,320.7"/>
<path class="st1" d="M765.5,320.7v-72.7c0,0-53.2-4.5-75.1,21.4v64C690.5,333.4,707.9,320.6,765.5,320.7"/>
<path class="st2" d="M510.7,410.3v162.1c0,5.9,17.8,119.8,171.6,135c0,0,130.6,3.7,175-135V414.7h-28.7v157.7
	c0,0-30.6,108.7-142,108.7c-22.7,0-118.5-2.3-150.1-108.7V410.3H510.7z"/>
<path class="st0" d="M549.6,442.3h-5.9v-31.9h33.9v162.1c0,0,30.9,68.8,106.4,68.8c12.1,0,69.7,3,106.2-72.7V414.1h33.1v31.8h-5.5
	v126.6c0,0-31.9,93.5-135.1,95.3c-15.2,0-92.5,1.6-132.6-95.3C550.2,509.5,549.6,442.3,549.6,442.3"/>
<path class="st0" d="M636.8,266.3l-2.6,12.3l-0.7-1.4c-0.1-0.7-0.4-1.6-0.7-2.9c-0.1-0.4-0.3-0.7-0.6-1c-0.8,0.9-2,1.5-3.2,1.5
	c-1.1,0-2.2-0.5-2.9-1.4c-0.4-0.5-0.7-1.1-0.9-1.8c-0.3-0.9-0.6-1.8-0.7-2.7c-0.2-0.9-0.2-1.9-0.2-2.8l1.2,0.6
	c0.2,1.2,0.3,1.9,0.3,2c0.1,0.7,0.4,1.3,0.7,1.8c0.3,0.5,0.7,0.9,1.2,1.3c0.5,0.4,1.2,0.5,1.9,0.5c1,0,1.8-0.7,2-1.7
	c0.1-0.3,0.1-0.7,0-1c0-0.3-0.2-0.7-0.4-0.8l-0.1-0.1c-0.1,0.1-0.2,0.3-0.4,0.4c-0.4,0.5-0.9,0.8-1.5,0.8c-0.4,0-0.9-0.1-1.2-0.4
	c-0.3-0.3-0.5-0.7-0.5-1.1c0-0.7,0.3-1.3,0.8-1.6c0.5-0.4,1.1-0.6,1.7-0.6c1.2,0,2.4,0.7,2.9,1.8c0.3,0.6,0.4,1.3,0.4,1.9
	c0,0.4,0,0.8-0.1,1.2l0.5,1.2l1.3-6.2h-10.8l-1.3-1.7h14.8l1.4,1.7H636.8z"/>
<path class="st0" d="M662.7,276.1l-2.6,12.3l-0.7-1.3c-0.2-0.7-0.3-1.7-0.7-2.9c-0.2-0.4-0.4-0.7-0.6-1.1c-0.8,1-2,1.5-3.2,1.6
	c-1.1,0-2.1-0.5-2.8-1.4c-0.4-0.5-0.7-1.1-0.9-1.8c-0.3-0.9-0.6-1.8-0.7-2.7c-0.1-0.9-0.2-1.9-0.2-2.9l1.2,0.5
	c0.2,0.7,0.3,1.4,0.3,2.1c0.2,0.6,0.4,1.3,0.7,1.9c0.4,0.5,0.8,0.9,1.2,1.2c0.5,0.4,1.2,0.5,1.9,0.5c1,0,1.8-0.7,2-1.7
	c0.1-0.3,0.1-0.6,0-0.9c0-0.3-0.1-0.7-0.3-0.9h-0.2c-0.1,0.1-0.2,0.3-0.3,0.4c-0.4,0.4-0.9,0.7-1.5,0.7c-0.4,0-0.8-0.1-1.1-0.4
	c-0.4-0.2-0.6-0.6-0.6-1.1c0-0.6,0.3-1.2,0.8-1.6c0.5-0.4,1.1-0.6,1.8-0.6c1.2,0,2.4,0.7,2.9,1.8c0.3,0.6,0.4,1.2,0.4,1.9
	c0,0.4,0,0.8-0.1,1.1l0.5,1.3l1.3-6.1h-10.7l-1.4-1.7h14.7l1.5,1.7H662.7z"/>
<path class="st0" d="M665.5,275.5l0-0.4c0.1-1,0.3-2,0.5-3l0.8,0.8c0,0.2,0,0.4,0,0.6c0,0.2,0,0.5,0.1,0.7c0,0.1,0.1,0.2,0.2,0.3
	h0.8l1.3,1.7H667l-2.6,12.4l-1.3-1.8l1.9-8.7v-0.5c0-0.4-0.2-0.8-0.4-1.1c-0.3-0.2-0.7-0.3-1.1-0.3H663l-1.4-1.6
	c0.6-0.1,1.1-0.1,1.7-0.1C664.2,274.3,665.1,274.7,665.5,275.5"/>
<path class="st0" d="M634.6,302c0-0.5-0.2-0.9-0.5-1.2c-0.4-0.6-1.2-0.9-1.9-0.9l-2,9.6l-0.8-1c-0.1-0.8-0.1-1.2-0.2-1.3
	c-0.2-0.4-0.4-0.8-0.6-1.2c-0.8-1.3-2.2-2.1-3.7-2.2l-1.4-2.3c2.3-1.6,4.8-2.8,7.4-3.6l0.1-0.5h-6.9l-1.3-1.6H637l1.4,1.6h-5.6
	l-0.1,0.3c0.9,0,1.8,0.5,2.4,1.2c0.6,0.7,0.9,1.6,1,2.6c0.1,1-0.3,2.1-1.1,2.8c-0.4,0.5-1,0.8-1.7,0.8c-0.4,0-0.8-0.2-1.1-0.4
	c-0.3-0.2-0.4-0.6-0.4-0.9c0.1-0.8,0.5-1.4,1.2-1.8c0.3-0.1,0.5-0.1,0.8-0.1C634,301.8,634.3,301.9,634.6,302 M630.5,300
	c-0.9,0.3-1.7,0.7-2.5,1.1c-0.4,0.3-0.8,0.5-1.2,0.7c1.1,0.6,2,1.6,2.6,2.7L630.5,300z"/>
<path class="st0" d="M663,303.4l-2.6,12l-0.6-0.9c-0.1-0.2-0.2-0.4-0.2-0.6c-0.1-1.2-0.6-2.2-1.5-2.9c-0.9-0.7-2-1.1-3.2-1.2
	l-1.9-3.2c0.5,0.2,1.1,0.3,1.6,0.3c0.8,0,1.7-0.2,2.5-0.5c0.8-0.2,1.5-0.7,1.8-1.4c0-0.2,0-0.5-0.2-0.7l-0.6,0.6
	c-1,0.7-2.2,1.1-3.4,1.1c-0.4,0-0.8-0.1-1.2-0.4c-0.3-0.2-0.5-0.6-0.5-1c0-1,0.9-1.9,1.9-1.9c0.5-0.1,1.1,0.3,1.1,0.8
	c0,0.1,0,0.1,0,0.2l0.4-0.2c0.8-0.5,1.5-1,2.2-1.6c0.5,0.5,1,1,1.4,1.5c0.4,0.5,0.6,1,0.6,1.6c0,1.4-1,2.6-2.9,3.4
	c0.8,0.6,1.5,1.3,2,2.2l2.4-11l1.1,0.7c0,0.2-0.1,0.5-0.1,0.7c-0.1,0.3-0.1,0.6,0,0.7c0.1,0.1,0.3,0.1,0.7,0.2l1.4,1.7L663,303.4z"
	/>
<path class="st0" d="M704.6,291.7c-0.2,0-0.4-0.1-0.7-0.4s-0.5-0.6-0.7-0.9c-0.6,0.4-1.2,0.7-1.8,0.9c-0.4,0.2-0.9,0.3-1.3,0.3
	c-1.4,0.1-2.7-0.4-3.7-1.4c-0.8-1.2-1.2-2.6-1.1-4.1c0-1.7,0.6-3.4,1.9-4.5c1.1-1.2,2.6-1.8,4.2-1.8c0.7,0,1.5,0.2,2.2,0.5
	c1,0.4,1.4,0.9,1.4,1.5c0,0.2-0.1,0.4-0.2,0.5c-0.1,0.4-0.2,0.9-0.2,1.3c-0.1,0.8-0.2,1.6-0.1,2.4c0,0.8,0.1,1.5,0.2,2.1
	c0.1,0.3,0.3,1,0.8,1.9c0,0.1,0.1,0.3,0.3,0.6v0.1c0,0.3-0.1,0.5-0.3,0.7C705.1,291.7,704.8,291.8,704.6,291.7 M702.4,284.2
	c0-0.3,0-0.6,0-0.9c0-0.4,0.1-0.8,0.2-1.2l-0.7-0.3c-0.1,0-0.3-0.1-0.4-0.1c-1.2,0-2.3,0.5-3,1.4c-0.8,0.8-1.3,1.9-1.3,3.1
	c0,0.9,0.2,1.9,0.7,2.7c0.5,0.6,1.1,0.9,1.9,0.9c0.6,0,1.2-0.1,1.8-0.4c0.4-0.2,0.8-0.5,1.1-0.9
	C702.5,287.1,702.4,285.7,702.4,284.2"/>
<path class="st0" d="M723.8,280.3c-1,0-2.1-0.2-3-0.7c-0.2,0.3-0.5,0.5-0.9,0.6c-0.3,0-0.5-0.1-0.7-0.3c-0.2-0.1-0.3-0.4-0.3-0.6
	c0-0.3,0-0.6,0-0.9v-0.8c0-0.8,0-1.9,0-3.4v-9.4c0-0.4,0.1-0.8,0.3-1.1c0.1-0.4,0.6-0.7,1-0.7c0.5,0,0.8,0.3,0.8,0.9
	c0,0.1,0,0.2,0,0.5c-0.1,0.1-0.1,0.3-0.1,0.4v2.4l-0.1,2.7c0.6-0.4,1.2-0.7,1.8-1c0.5-0.2,1-0.3,1.5-0.3c1.5,0,2.9,0.6,3.9,1.7
	c0.8,1.2,1.3,2.6,1.3,4.1c0.1,1.6-0.5,3.1-1.6,4.2C726.8,279.7,725.3,280.3,723.8,280.3 M724.2,270.5c-0.6,0-1.2,0.2-1.8,0.5
	c-0.5,0.3-1,0.7-1.5,1.1l-0.1,1.9v1.7l0.1,1.8c0.3,0.2,0.8,0.3,1.4,0.6c0.5,0.1,1,0.1,1.5,0.1c1,0,1.9-0.4,2.6-1
	c0.6-0.8,1-1.8,1-2.8c0-1-0.3-1.9-0.8-2.7C726,270.9,725.1,270.5,724.2,270.5"/>
<path class="st0" d="M746.3,272.1c-1.3,0.2-2.7-0.2-3.8-1c-1.2-0.8-2-2.1-2-3.5c-0.1-1.6,0.2-3.2,1-4.6c0.9-1.8,2-2.9,3.5-3
	c0.8-0.1,1.6,0,2.3,0.2c1.2,0.4,1.8,0.8,1.9,1.4c0.1,0.3,0,0.6-0.2,0.8c-0.1,0.2-0.4,0.3-0.6,0.3c-0.2,0.1-0.4,0-0.6-0.1
	c-0.2-0.1-0.3-0.2-0.5-0.3c-0.7-0.3-1.4-0.4-2.1-0.2c-0.7,0.1-1.4,0.7-2.1,2.1c-0.4,1-0.6,2.1-0.6,3.2c0,0.9,0.4,1.7,1.2,2.2
	c0.7,0.4,1.6,0.6,2.4,0.5c0.5-0.1,1-0.2,1.4-0.5l1.2-0.8c0.1-0.1,0.2-0.2,0.3-0.3c0.3,0,0.6,0.1,0.9,0.3c0.2,0.2,0.3,0.4,0.4,0.7
	c0,0.5-0.5,1.1-1.6,1.7C747.9,271.6,747.1,271.9,746.3,272.1"/>
<path class="st0" d="M705.7,315h-3.2c-0.3,0-0.5,0-0.8-0.1c-0.3-0.1-0.4-0.3-0.4-0.6c0-0.5,0.4-0.8,1.3-0.8l0.4,0.1h0.4
	c0-0.3-0.1-0.7-0.1-1.1c-0.1-0.4-0.1-0.8-0.1-1.1c0-0.7,0.1-1.6,0.2-3c0.1-1.4,0.2-2.4,0.2-3.1c-0.4,0.4-0.9,0.7-1.4,0.9
	c-0.2,0-0.5-0.1-0.6-0.3c-0.1-0.1-0.2-0.3-0.2-0.5c0-0.2,0.2-0.5,0.7-0.8c0.3-0.2,0.7-0.6,1.2-1c0.3-0.4,0.8-0.7,1.3-0.7
	c0.3,0,0.6,0.2,0.6,0.5c0,0,0,0.1,0,0.1c0,0.2,0,0.4-0.1,0.5c0,0.2,0,0.4,0,0.6v0.8c0,0.3,0,0.5,0,0.8c0,0.9-0.1,1.8-0.2,2.7
	c-0.1,0.9-0.2,1.8-0.2,2.7c0,0.3,0,0.7,0,1.1c0.1,0.4,0.1,0.7,0.1,1.1h0.9c0.2,0,0.4,0.1,0.5,0.2c0.1,0.1,0.2,0.3,0.2,0.5
	c0,0.2-0.1,0.4-0.2,0.5C706.1,315,705.9,315,705.7,315"/>
<path class="st0" d="M729.7,308.5c-0.2,0-0.3,0-0.5,0c-0.1-0.1-0.3-0.1-0.4-0.1h-2.6c-0.2,0-0.5,0.1-1,0.2c-0.3,0-0.6,0.1-0.9,0.1
	c0,0-0.2,0-0.3-0.1h-0.2c-0.5,0-0.6-0.2-0.7-0.5c-0.1-0.3-0.1-0.6-0.1-0.9c-0.1-1.1,0.3-2.2,1-3c0.8-0.7,1.6-1.3,2.4-1.9
	c0.6-0.3,1.1-0.7,1.6-1.2c0.5-0.5,0.7-1.1,0.7-1.7c0-0.4-0.3-0.8-0.7-0.9c-0.3-0.2-0.7-0.3-1.1-0.4c-0.5,0-1,0.1-1.4,0.4l-1.2,0.9
	c-0.1,0.2-0.3,0.2-0.6,0.2c-0.5,0-0.8-0.1-0.8-0.7c0-0.2,0.1-0.4,0.3-0.6c0.5-0.5,1-0.9,1.6-1.2c0.6-0.4,1.3-0.7,2-0.6
	c0.8,0,1.6,0.2,2.3,0.7c0.7,0.4,1.1,1.2,1.1,2c0,0.5,0,1-0.2,1.5c-0.2,0.4-0.4,0.8-0.7,1.2c-0.6,0.6-1.2,1.2-2,1.6
	c-0.7,0.4-1.3,0.9-1.9,1.4c-0.6,0.6-0.9,1.4-0.9,2.3l1.6-0.2c1.2,0,2-0.1,2.5-0.1c0.4,0,0.8,0.1,1.2,0.2c0.5,0.2,0.7,0.4,0.7,0.8
	c0,0.2-0.1,0.4-0.2,0.6C730,308.5,729.8,308.5,729.7,308.5"/>
<path class="st0" d="M751.9,301.1c-0.7,0.1-1.5-0.1-2.2-0.4c-0.7-0.3-1.2-0.9-1.5-1.5c-0.1-0.1-0.1-0.2-0.1-0.3
	c-0.1-0.1,0.1-0.3,0.2-0.5c0.1-0.2,0.3-0.3,0.6-0.3c0.2,0,0.3,0.2,0.6,0.3l0.4,0.5c0.2,0.3,0.5,0.5,0.8,0.5c0.4,0.1,0.8,0.2,1.2,0.2
	c0.5,0,1.1-0.3,1.5-0.7c0.4-0.3,0.6-0.8,0.6-1.3c0-0.7-0.4-1.4-1-1.9c-0.6-0.4-1.3-0.6-2.1-0.7c-0.7,0-0.9-0.3-0.9-0.7
	c0-0.4,0.2-0.5,0.7-0.7l1.8-0.6c0.3-0.1,0.6-0.3,0.8-0.5c0.2-0.3,0.3-0.5,0.3-0.8c-0.1-0.4-0.3-0.8-0.7-1c-0.5-0.3-1.1-0.5-1.7-0.4
	c-0.4,0-0.7,0.1-1,0.3l-0.8,0.6c-0.1,0.1-0.4,0.2-0.4,0.2c-0.2,0-0.4-0.1-0.6-0.2c-0.1-0.1-0.2-0.3-0.2-0.5c0-0.4,0.4-0.8,1.2-1.3
	c0.5-0.3,1.1-0.5,1.8-0.6c0.9,0,1.8,0.2,2.7,0.6c0.7,0.5,1.2,1.4,1.2,2.3c0.1,1-0.4,2.1-1.4,2.5c-0.2,0.1-0.2,0.2-0.3,0.2
	c0.6,0.2,1.2,0.6,1.6,1.1c0.4,0.5,0.7,1.2,0.6,1.8c0.1,1-0.3,2-1,2.7C753.9,300.7,752.9,301.1,751.9,301.1"/>
<path class="st0" d="M646.5,390.9c2.5,8.6,3.8,13,6.3,21.6c0.3,1,0.7,2,1.2,3c0.3,0.4,0.8,0.7,1.3,0.7c0.8,0.2,1.6,0.2,2.4-0.1
	c0.2-0.1,0.4-0.1,0.6-0.1c0.1,0.2,0.2,0.5,0.2,0.7c-4.9,1.2-9.7,2.7-14.4,4.7c-0.1-0.2-0.2-0.4-0.2-0.7c0.2-0.1,0.5-0.2,0.7-0.3
	c0.9-0.3,1.7-0.7,2.3-1.4c0.4-0.4,0.6-0.9,0.6-1.4c-0.1-1.1-0.4-2.2-0.9-3.2c-1.9-5.4-2.9-8-4.8-13.4c-0.3-0.8-0.6-1.5-1-2.2
	c-0.3-0.2-0.7-0.4-1.1-0.4c-0.5-0.1-1.1,0-1.5,0.2c-1,0.4-2,1-2.8,1.8c-0.2-0.2-0.4-0.4-0.7-0.6c3.5-3.1,7.2-6,11-8.7
	C645.9,391,646.2,391,646.5,390.9"/>
<path class="st0" d="M663,416.3c0-0.2,0-0.3,0-0.6c2-0.8,3.8-1.9,5.5-3.2c1.4-1.1,2.6-2.6,3.5-4.2c0.7-1.7,1.3-3.5,1.6-5.3
	c-0.1-0.1-1.7,1-2.3,1.2c-0.7,0.2-1.4,0.4-2.1,0.5c-2.2,0.3-4.4-0.1-6.2-1.3c-1.9-1.3-3.2-3.3-3.6-5.6c-0.3-1.7-0.2-3.5,0.4-5.2
	c0.7-1.7,1.9-3.2,3.5-4.1c1.6-1.1,3.5-1.8,5.5-1.9c2.1-0.3,4.2,0,6.1,0.8c1.9,0.8,3.5,2.1,4.6,3.8c1.1,1.8,1.7,3.8,1.7,5.9
	c0,2.9-0.7,5.8-2.1,8.4c-1.5,2.7-3.7,5.1-6.3,6.8C669.8,414.2,666.5,415.6,663,416.3 M673.9,401.4c0.4-0.6,0-2.9-0.1-4.1
	c-0.1-2.3-0.7-4.6-1.6-6.7c-0.4-1-1.1-1.9-2.1-2.4c-0.6-0.3-1.2-0.4-1.8-0.3c-0.8,0.1-1.4,0.5-1.9,1.1c-0.6,1.5-0.7,3.1-0.4,4.7
	c0.6,3.7,1.5,6.2,2.7,7.5c0.8,0.8,1.8,1.2,2.9,1.1C672.3,402.1,673.1,401.8,673.9,401.4"/>
<path class="st0" d="M684.3,414.3v-0.5c2.1-0.4,4.2-1.1,6.1-2.1c1.7-0.8,3.1-2,4.4-3.4c1-1.5,1.9-3.1,2.7-4.8
	c-0.1-0.1-1.8,0.5-2.6,0.5c-0.7,0.1-1.4,0.1-2,0.1c-2.2-0.2-4.2-1.1-5.8-2.6c-1.7-1.6-2.5-3.9-2.4-6.2c0-1.8,0.5-3.5,1.4-5
	c1.1-1.5,2.5-2.7,4.3-3.4c1.8-0.7,3.8-1,5.8-0.8c2.1,0.2,4,0.9,5.8,2c3.5,2.4,5.1,6.7,4.1,10.8c-0.6,2.9-2,5.5-3.9,7.8
	c-2,2.4-4.6,4.3-7.6,5.4C691.3,413.6,687.8,414.3,684.3,414.3 M698,401.8c0.5-0.5,0.6-2.8,0.7-3.9c0.4-2.3,0.3-4.7-0.1-7
	c-0.2-1.1-0.8-2-1.6-2.8c-0.5-0.4-1.1-0.6-1.7-0.6c-0.8-0.1-1.6,0.1-2.1,0.7c-0.7,0.7-1.2,2.2-1.3,4.5c-0.3,3.8,0.1,6.3,1,7.8
	c0.5,1,1.5,1.6,2.6,1.7C696.1,402.2,697.7,402.2,698,401.8"/>
<path class="st0" d="M721.5,420.9c-5.2-2.2-10.6-3.8-16.1-4.8c0.1-0.1,0.1-0.3,0.1-0.5c6.4-4.7,10.9-7.4,12.8-8.9
	c1.7-1.4,2.9-3.2,3.7-5.2c0.5-1.3,0.3-2.7-0.5-3.8c-0.8-1.3-2-2.2-3.5-2.5c-2.3-0.7-4.9-0.2-6.7,1.5c-0.3-0.1-0.6-0.2-0.8-0.4
	c1.2-2.2,3.1-3.8,5.4-4.6c2.3-0.7,4.7-0.7,7,0.1c1.7,0.5,3.2,1.3,4.5,2.5c1.1,1,1.9,2.3,2.4,3.7c0.4,1.1,0.4,2.3,0,3.5
	c-0.9,1.8-2.2,3.3-3.8,4.4c-2.5,1.8-7,3.8-13,6.7c2.1,0.5,4.2,1.2,6.2,2c1.5,0.5,2.5,0.8,3,0.9c0.5,0.1,1,0,1.4-0.2
	c0.7-0.3,1.3-0.7,1.8-1.2c0.2,0.1,0.5,0.3,0.7,0.3C724.3,416.9,723.3,418.3,721.5,420.9"/>
<path class="st0" d="M776.6,521.1c0,51.6-42.2,93.5-94.3,93.5c-52.1,0-94.3-41.9-94.3-93.5s42.3-93.5,94.3-93.5
	C734.4,427.7,776.6,469.5,776.6,521.1"/>
<path class="st0" d="M682.4,616.4c-52.9,0-96-42.7-96-95.3c0-52.6,43-95.2,96-95.2s96.1,42.8,96.1,95.2S735.3,616.4,682.4,616.4
	 M682.4,429.5c-51,0-92.4,41.1-92.4,91.7s41.4,91.7,92.4,91.7c51,0,92.5-41.1,92.5-91.7C774.9,470.5,733.4,429.5,682.4,429.5"/>
<polygon class="st1" points="770.9,484.2 593.8,484.2 595.5,480.6 769.3,480.6 "/>
<path class="st2" d="M776.6,521.1c0,51.6-42.2,93.5-94.3,93.5c-52.1,0-94.3-41.9-94.3-93.5"/>
<path class="st1" d="M607.4,525.5h-3.6c-0.1-30.5,9.6-60.3,27.6-84.9l2.9,2.1C616.8,466.7,607.4,495.7,607.4,525.5"/>
<path class="st1" d="M636.3,525.5h-3.5c0-36.6,13.9-71.8,38.9-98.5l2.6,2.4C649.9,455.4,636.3,489.8,636.3,525.5"/>
<path class="st1" d="M607.4,525.5h-3.6c-0.1-30.5,9.6-60.3,27.6-84.9l2.9,2.1C616.8,466.7,607.4,495.7,607.4,525.5"/>
<path class="st1" d="M761.1,525.5h-3.6c0.1-29.8-9.4-58.8-26.9-82.8l2.9-2.1C751.4,465.2,761.1,494.9,761.1,525.5"/>
<path class="st1" d="M732.2,525.5h-3.6c0-35.7-13.6-70.1-38-96.1l2.6-2.4C718.2,453.7,732.1,488.9,732.2,525.5"/>
<path class="st1" d="M761.1,525.5h-3.6c0.1-29.8-9.4-58.8-26.9-82.8l2.9-2.1C751.4,465.2,761.1,494.9,761.1,525.5"/>
<path class="st1" d="M682.4,457.3c-17.8,0-35.2-4.9-50.4-14.2l-2.5-1.5l2.5-1.6c30.9-18.9,69.8-18.9,100.7,0l2.5,1.6l-2.5,1.5
	C717.6,452.4,700.2,457.3,682.4,457.3 M636.5,441.6c28.5,16.1,63.4,16.1,91.9,0C699.9,425.4,665,425.4,636.5,441.6"/>
<rect x="599.7" y="564.4" class="st0" width="165.2" height="3.6"/>
<rect x="680.6" y="427.7" class="st1" width="3.6" height="187"/>
<path class="st0" d="M621.3,594.4c-10.9-20-17.5-47.4-17.5-73.3h3.6c0,25.3,7.9,56.4,18.6,76L621.3,594.4z"/>
<path class="st0" d="M663,613.9c-18.9-24.5-30.2-59.1-30.2-92.8h3.5c0,33,11.1,66.8,29.7,90.7L663,613.9z"/>
<path class="st0" d="M743.5,594.4l-4.9,1.8c10.2-12.8,18.9-49.8,18.9-75.1h3.6C761,547,754.5,574.4,743.5,594.4"/>
<path class="st0" d="M701.8,613.9l-2.9-2.2c18.6-23.8,29.6-57.8,29.6-90.6h3.6C732.2,554.7,720.8,589.5,701.8,613.9"/>
<polygon class="st1" points="660.1,506.9 660.1,457.8 669.8,457.8 690.1,490.7 690.1,457.8 699.4,457.8 699.4,506.9 689.3,506.9 
	669.4,474.9 669.4,506.9 "/>
<path class="st0" d="M659.4,566l9.8-1c0.6,3.3,1.8,5.7,3.6,7.1c1.8,1.5,4.1,2.2,7.2,2.2c3.1,0,5.6-0.6,7.2-2
	c1.5-1.1,2.5-2.9,2.5-4.8c0-1.1-0.4-2.1-1.1-2.9c-1-1-2.2-1.7-3.5-2.1c-1.2-0.4-3.9-1.1-8-2.2c-5.4-1.3-9.2-2.9-11.3-4.8
	c-5-4.2-6.1-11.5-2.4-16.9c1.5-2.2,3.6-4,6.1-5c3.1-1.2,6.4-1.7,9.8-1.6c6.2,0,10.9,1.3,14,4c3.2,2.7,5,6.7,4.9,10.9l-10,0.5
	c-0.4-2.5-1.4-4.4-2.8-5.4s-3.5-1.7-6.3-1.7s-5.2,0.6-6.8,1.7c-1,0.7-1.6,1.8-1.6,3.1c0,1.2,0.5,2.3,1.5,3c1.3,1,4.4,2.2,9.2,3.3
	c3.7,0.8,7.3,1.9,10.8,3.5c2.2,1.1,4.1,2.8,5.5,4.9c2.8,4.9,2.6,11-0.4,15.8c-1.6,2.5-3.9,4.4-6.7,5.4c-3.4,1.3-7.1,1.9-10.7,1.7
	c-6.3,0-11-1.4-14.4-4.2C662,575.8,660,571.6,659.4,566"/>
<path class="st0" d="M682.4,616.4c-17.4,0-34.6-4.7-49.6-13.6l-2.5-1.5l2.5-1.5c30.5-18.3,68.6-18.3,99.1,0l2.5,1.5l-2.5,1.5
	C717,611.7,699.8,616.4,682.4,616.4 M637.4,601.3c28.1,15.4,62.1,15.4,90.1,0C699.5,585.7,665.4,585.7,637.4,601.3"/>
<rect x="680.6" y="521.1" class="st0" width="3.6" height="93.5"/>
</svg>
